<?xml version="1.0" encoding="UTF-8" standalone="no"?>
<svg
   xmlns:dc="http://purl.org/dc/elements/1.1/"
   xmlns:cc="http://creativecommons.org/ns#"
   xmlns:rdf="http://www.w3.org/1999/02/22-rdf-syntax-ns#"
   xmlns:svg="http://www.w3.org/2000/svg"
   xmlns="http://www.w3.org/2000/svg"
   xml:space="preserve"
   enable-background="new 0 0 100 100"
   viewBox="0 0 100 100"
   height="100px"
   width="100px"
   y="0px"
   x="0px"
   id="Layer_1"
   version="1.1"><metadata
     id="metadata17"><rdf:RDF><cc:Work
         rdf:about=""><dc:format>image/svg+xml</dc:format><dc:type
           rdf:resource="http://purl.org/dc/dcmitype/StillImage" /><dc:title></dc:title></cc:Work></rdf:RDF></metadata><defs
     id="defs15" /><rect
     y="0"
     x="0"
     height="100"
     width="100"
     id="rect3393"
     style="opacity:1;fill:#ff7f2a;fill-opacity:1;fill-rule:nonzero;stroke:none;stroke-opacity:1" /><g
     style="fill:#ffffff"
     id="g3"><path
       style="fill:#ffffff"
       id="path5"
       d="M71.784,28.216c0.771,0.769,2.017,0.769,2.784,0l14.854-14.854c0.769-0.77,0.769-2.017,0-2.785   c-0.769-0.769-2.019-0.769-2.784,0L71.784,25.431C71.016,26.2,71.016,27.446,71.784,28.216z" /><g
       style="fill:#ffffff"
       id="g7"><path
         style="fill:#ffffff"
         id="path9"
         d="M60.838,37.65c-0.891-0.889-1.805-1.517-2.742-1.881c-0.939-0.365-1.844-0.447-2.711-0.249s-1.646,0.643-2.336,1.333    c-0.492,0.492-0.854,1.038-1.086,1.641c-0.232,0.602-0.322,1.231-0.27,1.885c0.052,0.654,0.266,1.343,0.643,2.067    c0.375,0.723,0.906,1.428,1.592,2.113c0.689,0.69,1.4,1.228,2.133,1.612c0.731,0.384,1.439,0.601,2.127,0.65    c0.684,0.05,1.324-0.04,1.916-0.27c0.596-0.229,1.138-0.589,1.629-1.082c0.631-0.629,1.052-1.366,1.264-2.208    c0.212-0.843,0.146-1.748-0.199-2.718C62.45,39.577,61.799,38.612,60.838,37.65z" /><path
         style="fill:#ffffff"
         id="path11"
         d="M85.826,25.314l-2.785-2.785l-3.495,3.497c0.485,2.308-0.166,4.807-1.958,6.599c-2.82,2.82-7.393,2.82-10.213,0    c-2.82-2.819-2.82-7.392,0-10.212c1.792-1.792,4.292-2.443,6.6-1.958l3.498-3.497l-2.785-2.785    c-1.922-1.922-21.752-1.922-23.674,0L11.443,53.744c-1.923,1.923-1.923,5.041,0,6.963l27.851,27.852    c1.922,1.922,5.04,1.922,6.963,0l39.571-39.571C87.749,47.065,87.749,27.237,85.826,25.314z M42.177,67.947    c-0.398,1.06-1.097,2.091-2.097,3.091c-1.198,1.198-2.415,1.961-3.646,2.286c-0.878,0.227-1.762,0.24-2.651,0.041    c-0.889-0.198-1.591-0.555-2.104-1.068c-0.298-0.298-0.451-0.656-0.456-1.078c-0.006-0.418,0.151-0.789,0.472-1.109    c0.259-0.26,0.562-0.396,0.908-0.41c0.345-0.016,0.745,0.078,1.197,0.277c0.542,0.231,1.031,0.387,1.47,0.469    c0.44,0.08,0.907,0.041,1.401-0.116c0.495-0.159,1.007-0.503,1.537-1.031c0.729-0.729,1.152-1.491,1.269-2.286    c0.116-0.795-0.081-1.447-0.589-1.957c-0.403-0.402-0.853-0.605-1.351-0.613c-0.498-0.004-1.007,0.121-1.53,0.377    c-0.521,0.259-1.183,0.639-1.984,1.141c-1.077,0.668-2.047,1.16-2.908,1.477c-0.863,0.313-1.702,0.408-2.519,0.281    c-0.818-0.127-1.579-0.541-2.28-1.242c-0.668-0.668-1.08-1.445-1.234-2.33c-0.154-0.883-0.027-1.811,0.385-2.779    c0.412-0.971,1.083-1.92,2.017-2.854c0.746-0.746,1.483-1.299,2.213-1.658c0.729-0.357,1.426-0.563,2.092-0.617    c0.666-0.051,1.25,0.01,1.752,0.181c0.502,0.172,0.915,0.416,1.235,0.737c0.292,0.291,0.453,0.66,0.48,1.103    c0.027,0.44-0.113,0.815-0.422,1.128c-0.282,0.28-0.566,0.424-0.853,0.43s-0.678-0.065-1.169-0.215    c-0.68-0.238-1.303-0.33-1.869-0.279c-0.566,0.054-1.192,0.422-1.877,1.105c-0.636,0.637-1.009,1.288-1.118,1.956    c-0.111,0.669,0.029,1.199,0.421,1.591c0.244,0.244,0.52,0.387,0.83,0.432c0.31,0.045,0.644,0.015,1.002-0.092    c0.358-0.105,0.693-0.24,1.002-0.406c0.31-0.164,0.807-0.451,1.492-0.86c0.846-0.524,1.641-0.969,2.389-1.33    c0.75-0.362,1.456-0.601,2.122-0.712c0.665-0.113,1.318-0.068,1.959,0.137c0.642,0.203,1.268,0.613,1.881,1.227    c0.735,0.734,1.206,1.584,1.414,2.549C42.669,65.875,42.573,66.885,42.177,67.947z M54.979,55.725l-6.686,6.688    c-0.537,0.535-1.041,0.802-1.512,0.799c-0.473-0.002-0.975-0.27-1.505-0.799l-9.131-9.131c-0.354-0.355-0.59-0.695-0.709-1.023    c-0.118-0.328-0.118-0.656,0.004-0.982s0.356-0.662,0.705-1.01l6.497-6.497c0.392-0.392,0.771-0.597,1.135-0.614    c0.364-0.017,0.688,0.116,0.97,0.398c0.287,0.287,0.421,0.613,0.406,0.978c-0.017,0.365-0.221,0.743-0.614,1.135l-5.544,5.544    l2.983,2.982l5.104-5.104c0.376-0.375,0.741-0.571,1.094-0.588c0.354-0.017,0.669,0.113,0.945,0.389    c0.276,0.276,0.41,0.592,0.402,0.949c-0.008,0.356-0.203,0.726-0.584,1.106l-5.105,5.104l3.456,3.455l5.733-5.734    c0.387-0.386,0.769-0.588,1.145-0.604c0.375-0.017,0.713,0.124,1.012,0.423c0.287,0.287,0.422,0.618,0.406,0.993    C55.566,54.955,55.366,55.337,54.979,55.725z M65.8,44.421c-0.44,1.038-1.139,2.035-2.095,2.991    c-0.95,0.951-1.955,1.647-3.014,2.092c-1.058,0.445-2.116,0.64-3.178,0.584c-1.062-0.055-2.111-0.346-3.152-0.873    c-1.041-0.528-2.019-1.248-2.93-2.16c-0.934-0.934-1.656-1.924-2.166-2.97c-0.512-1.046-0.786-2.098-0.825-3.153    c-0.039-1.055,0.162-2.092,0.601-3.112c0.44-1.019,1.123-1.992,2.05-2.92c1.26-1.259,2.598-2.085,4.012-2.478    s2.824-0.35,4.229,0.129c1.405,0.478,2.746,1.352,4.017,2.623c0.938,0.939,1.666,1.919,2.178,2.942    c0.515,1.021,0.8,2.068,0.854,3.141C66.438,42.328,66.242,43.383,65.8,44.421z" /></g></g></svg>